<svg id="Layer_1" data-name="Layer 1" xmlns="http://www.w3.org/2000/svg" viewBox="0 0 600 235"><defs><style>.cls-1{fill:#348aef;opacity:0.9;}</style></defs><title>water</title><path class="cls-1" d="M562.55,1.09a106.7,106.7,0,0,0-29.83,7c-8.17,3.11-15.9,7.29-24.27,9.91A168.27,168.27,0,0,1,442.73,25a149.51,149.51,0,0,1-33-6.69c-10-3.35-19.52-8.41-30.2-9.58-29.9-3.26-60.39,7.57-89.89,10.72a201.9,201.9,0,0,1-60.14-2.61C211.84,13.41,194.09,9.33,176,9c-17.86-.33-34.8,4.21-51.45,10.3C111.22,24.16,98.1,30.54,84,32.74c-8.47,1.31-17.1,1.16-25.63.66a62.9,62.9,0,0,1-21.66-5c-1.09-.48-2.18-1-3.26-1.5s-2.15-1.06-3.21-1.62-2.12-1.13-3.17-1.71S25,22.4,23.93,21.8,21.87,20.58,20.84,20s-2.05-1.24-3.07-1.87l-3.06-1.88-3.07-1.89c-1-.62-2.05-1.25-3.08-1.86C6.28,11.08,3.93,9.72,1.64,8.31,1.1,8,.55,7.64,0,7.32V235H600S600,7.32,600,7.32a35.45,35.45,0,0,0-4.81-2.15,54.08,54.08,0,0,0-12.13-3.38A83.91,83.91,0,0,0,563.27,1Z"/></svg>